<svg width="101" height="100" viewBox="0 0 101 100" fill="none" xmlns="http://www.w3.org/2000/svg">
<g clip-path="url(#clip0_139_1139)">
<path d="M50.4999 0C40.6109 0 30.9439 2.93245 22.7214 8.42652C14.499 13.9206 8.09035 21.7295 4.30597 30.8658C0.521588 40.0021 -0.468579 50.0555 1.46068 59.7545C3.38994 69.4536 8.15198 78.3627 15.1446 85.3553C22.1372 92.348 31.0464 97.11 40.7454 99.0393C50.4445 100.969 60.4978 99.9784 69.6341 96.194C78.7704 92.4096 86.5794 86.001 92.0734 77.7785C97.5675 69.5561 100.5 59.8891 100.5 50C100.5 43.4339 99.2067 36.9321 96.6939 30.8658C94.1812 24.7995 90.4982 19.2876 85.8553 14.6447C81.2124 10.0017 75.7004 6.31876 69.6341 3.80602C63.5678 1.29329 57.066 0 50.4999 0ZM50.4999 93.82C41.7976 93.82 33.2906 91.2394 26.0549 86.4047C18.8191 81.5699 13.1795 74.698 9.84925 66.6581C6.51899 58.6181 5.64764 49.7712 7.34539 41.236C9.04314 32.7009 13.2337 24.8608 19.3872 18.7073C25.5408 12.5538 33.3808 8.3632 41.916 6.66545C50.4511 4.9677 59.2981 5.83905 67.338 9.1693C75.378 12.4996 82.2498 18.1391 87.0846 25.3749C91.9194 32.6107 94.4999 41.1176 94.4999 49.82C94.4946 61.4861 89.8566 72.6725 81.6056 80.9198C73.3546 89.167 62.166 93.8 50.4999 93.8V93.82Z" fill="#C99566"/>
<path d="M50.5 7.2998C42.0745 7.2998 33.8382 9.79825 26.8327 14.4792C19.8272 19.1602 14.367 25.8134 11.1427 33.5975C7.91844 41.3816 7.07481 49.9471 8.71855 58.2107C10.3623 66.4743 14.4195 74.0649 20.3773 80.0226C26.335 85.9803 33.9256 90.0376 42.1892 91.6813C50.4528 93.325 59.0182 92.4814 66.8023 89.2571C74.5865 86.0328 81.2397 80.5727 85.9206 73.5671C90.6016 66.5616 93.1 58.3253 93.1 49.8998C93.0842 38.6065 88.5909 27.7802 80.6052 19.7946C72.6196 11.809 61.7934 7.31568 50.5 7.2998Z" fill="#C99566"/>
<path d="M63.1681 45.4162C63.055 45.2278 62.8288 45.1901 62.6403 45.2654C61.8487 45.7178 61.2456 45.2278 60.1901 44.3231C59.4362 43.6822 58.5692 42.9283 57.476 42.7021C56.3074 42.476 55.2897 43.0037 54.6488 43.7199C54.4604 43.6822 54.2719 43.6822 54.0834 43.6822C54.0834 43.6822 54.0834 43.6822 54.0457 43.6822C53.5934 43.6822 53.1033 43.7576 52.651 43.9084C52.3117 43.2299 51.8217 42.5514 51.2185 41.9105C51.9347 41.5713 52.4248 40.8174 52.4248 39.9881C52.4248 38.8195 51.4824 37.8394 50.2761 37.8394C49.2583 37.8394 48.3913 38.5556 48.2029 39.498C47.8259 39.3095 47.449 39.1587 47.1097 39.0457C47.2605 38.8195 47.449 38.5556 47.6751 38.2917C48.2406 37.6886 48.429 36.9724 48.2029 36.2939C48.1652 36.1431 48.0898 35.9923 47.9767 35.8415C48.3537 35.0122 48.2783 34.1075 48.0144 33.4667C48.3537 33.0144 48.6552 32.4866 48.806 31.8458C48.8437 31.6573 48.7306 31.4311 48.5421 31.3934C48.3537 31.3557 48.1275 31.4688 48.0898 31.6573C47.9767 32.072 47.8259 32.4489 47.5997 32.7505C47.3359 32.4112 46.9589 32.185 46.6196 32.1473C45.4511 32.0343 44.8856 32.5243 44.7349 33.052C44.5841 33.5421 44.8103 34.0698 45.2626 34.3337C45.715 34.5976 46.2804 34.5976 46.8458 34.3714C47.0343 34.296 47.2228 34.1829 47.4113 34.0321C47.4867 34.3714 47.5243 34.786 47.4113 35.2007C47.1851 35.0499 46.9212 34.9368 46.6573 34.8614C46.0542 34.7484 45.4888 34.8991 45.1118 35.3515C44.848 35.653 44.7726 36.03 44.8856 36.407C45.0364 36.8216 45.4134 37.1609 45.8657 37.2363C46.205 37.3117 46.8458 37.274 47.4867 36.5577C47.5997 36.9724 47.449 37.387 47.1097 37.764C46.7704 38.141 46.5066 38.4802 46.3181 38.8195C46.0165 38.7818 45.7526 38.7441 45.4888 38.7441C44.6972 38.7441 44.0186 39.008 43.5286 39.4603C43.3024 39.6865 43.1139 39.9881 43.0009 40.3273L37.6858 53.37C37.5727 53.6339 37.6104 53.9355 37.7612 54.1993C37.9119 54.4632 38.2135 54.5763 38.4774 54.5763C38.5905 54.5763 38.7035 54.5386 38.8166 54.5009L46.8835 51.1837L51.8217 49.1481C52.1609 49.035 52.4625 48.8465 52.6887 48.6204C53.5934 47.7157 53.6311 46.2078 52.9525 44.5869C53.2918 44.4738 53.6687 44.4361 54.008 44.4361C54.0457 44.4361 54.0834 44.4361 54.1211 44.4361C53.5934 45.4539 53.7064 46.5471 54.3473 47.301C54.7242 47.7157 55.1766 47.8664 55.5912 47.8664C55.9682 47.8664 56.3451 47.7157 56.609 47.4895C57.2121 46.9618 57.5137 45.944 56.6844 44.8885C56.3451 44.4738 55.9305 44.1346 55.4404 43.9461C55.9305 43.5314 56.5713 43.3053 57.2875 43.4561C58.1922 43.6445 58.9461 44.2854 59.6624 44.8885C60.6802 45.7555 61.6979 46.6225 62.9796 45.9063C63.2058 45.8309 63.2812 45.6047 63.1681 45.4162ZM46.582 33.6929C46.3558 33.806 46.0165 33.8814 45.6773 33.6929C45.5265 33.6175 45.4511 33.429 45.4888 33.2782C45.5642 33.0897 45.7903 32.9013 46.3558 32.9013C46.4312 32.9013 46.5066 32.9013 46.582 32.9013C46.7327 32.9013 46.9589 33.052 47.1474 33.3159C46.9589 33.5044 46.7704 33.6175 46.582 33.6929ZM47.0343 36.0677C46.7327 36.4447 46.3935 36.6331 46.0919 36.5577C45.9034 36.52 45.7526 36.407 45.6773 36.2185C45.6396 36.1054 45.6773 35.9923 45.7526 35.9169C45.9411 35.6907 46.1673 35.653 46.3558 35.653C46.4312 35.653 46.5066 35.653 46.582 35.6907C46.7704 35.7284 46.9966 35.8415 47.1474 35.9923C47.072 35.9923 47.0343 36.03 47.0343 36.0677ZM50.3138 38.5933C51.0677 38.5933 51.7086 39.1964 51.7086 39.9881C51.7086 40.6666 51.1808 41.2697 50.5023 41.3451C50.4269 41.3451 50.3892 41.3828 50.3138 41.3828C50.2384 41.3828 50.1254 41.3828 50.05 41.3451C50.0123 41.3451 50.0123 41.3451 49.9746 41.3451C49.8992 41.3451 49.8615 41.3074 49.7861 41.2697C49.7484 41.2697 49.7484 41.232 49.7107 41.232C49.673 41.1943 49.5976 41.1943 49.5599 41.1566C49.5222 41.1189 49.4845 41.1189 49.4845 41.0812C49.4468 41.0435 49.4091 41.0435 49.3714 41.0058C49.3337 40.9681 49.296 40.9304 49.2584 40.8927C49.2584 40.8551 49.2207 40.8551 49.2207 40.8174C49.183 40.742 49.1453 40.7043 49.1076 40.6289C49.0322 40.4781 48.9945 40.3273 48.9568 40.1388C48.9568 40.1011 48.9568 40.0634 48.9568 40.0257C48.9191 39.2341 49.5599 38.5933 50.3138 38.5933ZM45.9788 47.1125C46.0165 47.1502 46.0542 47.1879 46.0919 47.1879C46.2427 47.301 46.3935 47.4518 46.5443 47.5649C46.582 47.6026 46.582 47.6026 46.6196 47.6403C46.7704 47.7534 46.8835 47.8288 47.0343 47.9418C47.072 47.9795 47.1097 47.9795 47.1097 48.0172C47.2605 48.1303 47.4113 48.2057 47.562 48.3188C47.5997 48.3565 47.6374 48.3565 47.6751 48.3942C47.8259 48.4696 47.9767 48.5827 48.1275 48.6581H48.1652C48.316 48.7334 48.4667 48.8088 48.6552 48.8842C48.6552 48.8842 48.6929 48.8842 48.6929 48.9219C45.3757 48.545 42.8124 46.7356 42.0585 44.8508L42.4354 43.9084C42.9255 44.6246 43.6417 45.1901 44.5464 45.6424C44.848 46.0194 45.1495 46.3963 45.5265 46.7733C45.6773 46.8487 45.828 46.9994 45.9788 47.1125ZM46.7327 50.4675C45.1872 50.279 41.7569 49.6005 40.9653 47.4141L41.6438 45.7178C42.9255 47.9418 45.8657 49.2989 48.7683 49.6381L46.7327 50.4675ZM43.9056 51.636C42.5108 51.5229 40.7768 50.9952 40.1737 49.3366L40.5883 48.3565C41.5684 49.9397 43.6417 50.6559 45.4134 51.0329L43.9056 51.636ZM41.3799 52.6538C40.2114 52.6538 39.3821 52.1638 39.2313 51.636L39.7967 50.279C40.3622 51.2214 41.3046 51.8245 42.5862 52.1638L41.3799 52.6538ZM43.5663 44.0592C43.227 43.7576 43.0009 43.4184 42.7747 43.0037L43.0009 42.476C43.1139 43.0037 43.3024 43.5314 43.5663 44.0592ZM38.5528 53.8224C38.4774 53.8601 38.4397 53.8224 38.402 53.7847C38.3643 53.747 38.402 53.6716 38.402 53.6716L38.892 52.503C39.1936 52.8046 39.5706 53.0685 40.0606 53.2192L38.5528 53.8224ZM52.1986 48.0926C52.0478 48.2434 51.8217 48.3942 51.5955 48.4696C51.3693 48.545 51.0677 48.5827 50.7662 48.5827C49.5222 48.5827 47.9767 47.8664 46.6196 46.6979C46.582 46.6602 46.5066 46.6225 46.4689 46.5471C46.3181 46.434 46.205 46.2832 46.0542 46.1701C45.9411 46.0571 45.7903 45.9063 45.6773 45.7932C45.6396 45.7555 45.6019 45.6801 45.5642 45.6424C45.4888 45.567 45.4134 45.4916 45.338 45.3785C45.3003 45.3031 45.2626 45.2654 45.1872 45.1901C45.1118 45.1147 45.0741 45.0393 44.9987 44.9639C44.961 44.8885 44.9233 44.8508 44.8856 44.7754C44.848 44.7 44.7726 44.6246 44.7349 44.5492C44.6972 44.4738 44.6595 44.4361 44.6218 44.3608C44.5464 44.2854 44.5087 44.1723 44.471 44.0969C44.4333 44.0592 44.4333 44.0215 44.3956 43.9838C44.3202 43.833 44.2448 43.7199 44.1694 43.5691C44.1694 43.5314 44.1317 43.4937 44.1317 43.4937C44.094 43.3807 44.0186 43.2676 43.9809 43.1545C43.9809 43.1168 43.9433 43.0791 43.9433 43.0414C43.9056 42.9283 43.8679 42.8529 43.8302 42.7398C43.8302 42.7021 43.7925 42.6644 43.7925 42.6267C43.7548 42.5137 43.7171 42.4006 43.7171 42.3252C43.7171 42.2875 43.7171 42.2875 43.6794 42.2498C43.6417 42.1367 43.6417 42.0236 43.604 41.9105V41.8728C43.5663 41.609 43.5663 41.3828 43.604 41.1566C43.604 41.1189 43.604 41.1189 43.604 41.1189C43.604 41.0435 43.6417 40.9304 43.6417 40.8551C43.6417 40.8174 43.6794 40.7797 43.6794 40.742C43.7548 40.4404 43.9056 40.2142 44.094 40.0257C44.4333 39.6865 44.8856 39.5357 45.4888 39.5357C45.6396 39.5357 45.7903 39.5357 45.9411 39.5734C45.6019 40.3273 45.5642 40.8551 45.5642 41.0058C45.5642 41.232 45.715 41.3828 45.9411 41.3828C46.1296 41.3828 46.3181 41.232 46.3181 41.0058C46.3181 40.9304 46.3558 40.4027 46.695 39.6865C47.1851 39.8373 47.6751 40.0257 48.1652 40.3273C48.2406 40.7043 48.3913 41.0435 48.6175 41.3451C48.6175 41.3451 48.6175 41.3451 48.6552 41.3828C48.7306 41.4582 48.7683 41.5336 48.8437 41.5713C48.8814 41.5713 48.8814 41.609 48.9191 41.609C48.9945 41.6844 49.0699 41.7221 49.1453 41.7597C49.183 41.7597 49.2207 41.7974 49.2207 41.7974C49.296 41.8351 49.3714 41.8728 49.4845 41.9105C49.5222 41.9105 49.5599 41.9482 49.5599 41.9482C49.673 41.9859 49.7484 42.0236 49.8615 42.0236C49.8992 42.0236 49.8992 42.0236 49.9369 42.0236C50.05 42.0236 50.163 42.0613 50.2761 42.0613C50.3138 42.0613 50.3515 42.0613 50.3892 42.0613C51.03 42.7021 51.5201 43.4184 51.8971 44.1346C50.9547 44.5492 50.0877 45.2278 49.4091 46.1324C49.296 46.2832 49.296 46.5471 49.4845 46.6602C49.6353 46.7733 49.8992 46.7733 50.0123 46.5848C50.6531 45.7932 51.407 45.1901 52.2363 44.8131C52.8394 46.2078 52.8771 47.4518 52.1986 48.0926ZM56.1567 45.3785C56.7221 46.0948 56.5336 46.6979 56.1944 46.9618C55.8928 47.2256 55.3651 47.301 54.9504 46.811C54.385 46.1701 54.5357 45.3031 54.875 44.7C54.9127 44.6623 54.9127 44.6246 54.9504 44.5869C55.4404 44.7377 55.8551 45.0016 56.1567 45.3785ZM59.7001 36.7839C60.4163 36.7839 61.0194 36.1808 61.0194 35.4646C61.0194 34.7484 60.4163 34.1452 59.7001 34.1452C58.9838 34.1452 58.3807 34.7484 58.3807 35.4646C58.3807 36.1808 58.9461 36.7839 59.7001 36.7839ZM59.7001 34.8991C60.0016 34.8991 60.2655 35.163 60.2655 35.4646C60.2655 35.7661 60.0016 36.03 59.7001 36.03C59.3985 36.03 59.1346 35.7661 59.1346 35.4646C59.1346 35.163 59.3608 34.8991 59.7001 34.8991ZM50.4269 43.5314C50.4269 42.966 49.9746 42.5137 49.4091 42.5137C48.8437 42.5137 48.3913 42.966 48.3913 43.5314C48.3913 44.0969 48.8437 44.5492 49.4091 44.5492C49.9746 44.5492 50.4269 44.0592 50.4269 43.5314ZM49.1453 43.5314C49.1453 43.3807 49.2583 43.2676 49.4091 43.2676C49.5599 43.2676 49.673 43.3807 49.673 43.5314C49.673 43.6822 49.5599 43.7953 49.4091 43.7953C49.2583 43.7953 49.1453 43.6445 49.1453 43.5314ZM51.4824 34.0321L52.7641 34.7107L52.9148 36.1431C52.9148 36.2939 53.0279 36.407 53.141 36.4447C53.1787 36.4447 53.2164 36.4824 53.2541 36.4824C53.3672 36.4824 53.4426 36.4447 53.518 36.3693L54.5734 35.3892L56.0059 35.6907C56.1567 35.7284 56.3074 35.653 56.3828 35.54C56.4582 35.4269 56.4959 35.2761 56.4205 35.163L55.8174 33.8437L56.5336 32.5997C56.609 32.4866 56.609 32.3358 56.5336 32.185C56.4582 32.072 56.3074 31.9966 56.1567 32.0343L54.7242 32.2604L53.7441 31.1673C53.6311 31.0542 53.518 31.0165 53.3672 31.0542C53.2164 31.0919 53.141 31.205 53.1033 31.3557L52.8394 32.7882L51.5201 33.3913C51.407 33.4667 51.2939 33.5798 51.2939 33.7306C51.2939 33.8814 51.3693 33.9567 51.4824 34.0321ZM53.3295 33.3913C53.4426 33.3536 53.518 33.2405 53.5557 33.1274L53.7064 32.2604L54.3096 32.9013C54.385 32.9767 54.4981 33.052 54.6488 33.0144L55.5158 32.9013L55.0635 33.6552C54.9881 33.7683 54.9881 33.8814 55.0635 33.9944L55.4404 34.786L54.5734 34.6353C54.4604 34.5976 54.3096 34.6353 54.2342 34.7484L53.5934 35.3515L53.518 34.4845C53.518 34.3714 53.4426 34.2583 53.3295 34.1829L52.5379 33.7683L53.3295 33.3913ZM55.1389 38.1033C54.9881 38.0656 54.8373 38.1033 54.7619 38.1787C54.6488 38.2917 54.6111 38.4425 54.6865 38.5556L54.9881 39.4603L54.4227 40.2142C54.3473 40.3273 54.3096 40.4781 54.385 40.6289C54.4604 40.742 54.5734 40.8174 54.7242 40.8551H55.6666L56.1944 41.6467C56.2698 41.7597 56.3828 41.7974 56.4959 41.7974H56.5336C56.6844 41.7597 56.7975 41.6844 56.8352 41.5336L57.1368 40.6289L58.0415 40.365C58.1922 40.3273 58.2676 40.2142 58.3053 40.0634C58.343 39.9127 58.2676 39.7619 58.1545 39.6865L57.4006 39.1211L57.4383 38.1787C57.4383 38.0279 57.3629 37.9148 57.2498 37.8394C57.1368 37.764 56.986 37.8017 56.8352 37.8771L56.0813 38.4425L55.1389 38.1033ZM56.3074 39.1211L56.609 38.8949V39.2718C56.609 39.3849 56.6467 39.498 56.7598 39.5734L57.0614 39.7996L56.6844 39.9127C56.5713 39.9504 56.4582 40.0257 56.4205 40.1765L56.3074 40.5535L56.0813 40.2519C56.0059 40.1388 55.8928 40.1011 55.7797 40.1011H55.4028L55.6289 39.7996C55.7043 39.6865 55.742 39.5734 55.7043 39.4603L55.5912 39.0834L55.9682 39.1964C56.0813 39.2341 56.2321 39.1964 56.3074 39.1211Z" fill="white"/>
<path d="M23.9925 62.6104H19.8671V64.3383H23.4417V65.6343H19.8671V67.4918H23.9817V68.8309H18.42V61.2713H23.9925V62.6104ZM30.7124 61.2713H32.3431L29.3625 68.8309H27.7426L24.762 61.2713H26.3927L28.5525 66.9518L30.7124 61.2713ZM38.9011 62.6104H34.7757V64.3383H38.3503V65.6343H34.7757V67.4918H38.8903V68.8309H33.3286V61.2713H38.9011V62.6104ZM45.3402 61.2713H46.8197V68.8309H45.5994L41.798 63.9172V68.8309H40.3185V61.2713H41.5388L45.3402 66.1742V61.2713ZM54.4684 61.2713V62.6104H51.9306V68.8309H50.451V62.6104H47.9132V61.2713H54.4684ZM61.0804 68.8309L60.4648 67.1894H57.063L56.4366 68.8309H54.9031L57.7973 61.2713H59.7196L62.6247 68.8309H61.0804ZM57.549 65.8827H59.968L58.7585 62.686L57.549 65.8827ZM68.945 61.2713V66.2822C68.945 67.9345 67.8111 68.9821 66.094 68.9821C64.5713 68.9821 63.5777 68.1505 63.1565 66.9302L64.5389 66.5306C64.7549 67.211 65.2624 67.6862 66.0724 67.6862C66.9579 67.6862 67.4763 67.049 67.4763 66.239V62.5672H63.9125V61.2713H68.945ZM71.1832 68.9173C70.6864 68.9173 70.2977 68.5285 70.2977 68.0317C70.2977 67.5674 70.6864 67.1894 71.1832 67.1894C71.6692 67.1894 72.058 67.5674 72.058 68.0317C72.058 68.5285 71.6692 68.9173 71.1832 68.9173ZM76.564 68.9821C74.7173 68.9821 73.497 67.8697 73.0758 66.6926L74.4905 66.2606C74.7929 67.049 75.5597 67.6754 76.6504 67.6754C77.536 67.6754 78.0867 67.2218 78.0867 66.725C78.0867 66.3254 77.8167 66.0554 77.0932 65.8179L75.1601 65.2131C74.1665 64.8999 73.443 64.2627 73.4538 63.2908C73.443 62.1137 74.5877 61.1201 76.1644 61.1201C77.7951 61.1201 79.0047 62.0165 79.4151 63.064L78.0435 63.4636C77.7303 62.848 77.0284 62.4268 76.1752 62.4268C75.4301 62.4268 74.9549 62.8048 74.9549 63.2476C74.9549 63.5824 75.1817 63.8092 75.6785 63.9604L77.5576 64.5651C78.7131 64.9215 79.5878 65.4075 79.5878 66.6386C79.5878 67.9345 78.3783 68.9821 76.564 68.9821ZM80.9189 68.8309V61.2713H82.42V68.8309H80.9189Z" fill="white"/>
</g>
<defs>
<clipPath id="clip0_139_1139">
<rect width="100" height="100" fill="white" transform="translate(0.5)"/>
</clipPath>
</defs>
</svg>
